<svg xmlns="http://www.w3.org/2000/svg" viewBox="0 0 400 400">
 <g transform="translate(200,200)">
  <circle cx="0" cy="0" r="200"/>
   <circle r="175" cx="0" cy="0"
          stroke="white"
          stroke-width="1"/>
 <circle r="170" cx="0" cy="0"
          stroke="red"
          stroke-width="9.5"/>
   
 <circle r="170" cx="0" cy="0"
             stroke="green"
             stroke-width="9.5"
              fill="none"
             stroke-dasharray="53.40707511102 53.40707511102"
         transform="rotate(27 0 0)"/>
   
   <circle r="165" cx="0" cy="0"
          stroke="white"
          stroke-width="1"/>
 <circle r="135" cx="0" cy="0"
             stroke="#E1C699"
             stroke-width="59"
              fill="none"
             stroke-dasharray="42.41150082346 42.41150082346"
         transform="rotate(27 0 0)"/>
     
   <circle r="105" cx="0" cy="0"
          stroke="white"
          stroke-width="1"/>
     <circle r="100" cx="0" cy="0"
          stroke="red"
          stroke-width="9.5"/>
 <circle r="100" cx="0" cy="0"
             stroke="green"
             stroke-width="9.5"
              fill="none"
             stroke-dasharray="31.41592653 31.41592653"
         transform="rotate(27 0 0)"/>
   <circle r="95" cx="0" cy="0"
          stroke="white"
          stroke-width="1"/>
 <circle r="45" cx="0" cy="0"
             stroke="#E1C699"
             stroke-width="99"
              fill="none"
             stroke-dasharray="14.13716694115 14.13716694115"
         transform="rotate(27 0 0)"/>    
     <line x1="0" y1="180" x2="0" y2="-180" stroke="white" transform="rotate(-9 0 0)"/>
  <line x1="0" y1="180" x2="0" y2="-180" stroke="white"  transform="rotate(9 0 0)"/>
  <line x1="0" y1="180" x2="0" y2="-180" stroke="white"  transform="rotate(27 0 0)"/>
  <line x1="0" y1="180" x2="0" y2="-180" stroke="white"  transform="rotate(45 0 0)"/>
  <line x1="0" y1="180" x2="0" y2="-180" stroke="white"  transform="rotate(63 0 0)"/>
  <line x1="0" y1="180" x2="0" y2="-180" stroke="white"  transform="rotate(81 0 0)"/>
  <line x1="0" y1="180" x2="0" y2="-180" stroke="white"  transform="rotate(99 0 0)"/>
  <line x1="0" y1="180" x2="0" y2="-180" stroke="white"  transform="rotate(117 0 0)"/>
  <line x1="0" y1="180" x2="0" y2="-180" stroke="white"  transform="rotate(135 0 0)"/>
  <line x1="0" y1="180" x2="0" y2="-180" stroke="white"  transform="rotate(153 0 0)"/>
  
  <circle cx="0" cy="0" r="20" fill="white"/>
  <circle cx="0" cy="0" r="19" fill="green"/>
  <circle cx="0" cy="0" r="10" fill="white"/>
  <circle cx="0" cy="0" r="9" fill="red"/>
   <text text-anchor="middle" alignment-baseline="middle" transform="rotate(0,0,0)" fill="#fff" x="0" y="-185">20</text>
   <text text-anchor="middle" alignment-baseline="middle" transform="rotate(18,0,0)" fill="#fff" x="0" y="-185">1</text>
   <text text-anchor="middle" alignment-baseline="middle" transform="rotate(36,0,0)" fill="#fff" x="0" y="-185">18</text>
<text text-anchor="middle" alignment-baseline="middle" transform="rotate(54,0,0)" fill="#fff" x="0" y="-185">4</text>
  <text text-anchor="middle" alignment-baseline="middle" transform="rotate(72,0,0)" fill="#fff" x="0" y="-185">13</text>
   <text text-anchor="middle" alignment-baseline="middle" transform="rotate(90,0,0)" fill="#fff" x="0" y="-185">6</text>
   <text text-anchor="middle" alignment-baseline="middle" transform="rotate(-72,0,0)" fill="#fff" x="0" y="188">10</text>
   <text text-anchor="middle" alignment-baseline="middle" transform="rotate(-54,0,0)" fill="#fff" x="0" y="188">15</text>
 <text text-anchor="middle" alignment-baseline="middle" transform="rotate(-36,0,0)" fill="#fff" x="0" y="188">2</text>
   <text text-anchor="middle" alignment-baseline="middle" transform="rotate(-18,0,0)" fill="#fff" x="0" y="188">17</text>
   <text text-anchor="middle" alignment-baseline="middle" transform="rotate(0,0,0)" fill="#fff" x="0" y="188">3</text>
   <text text-anchor="middle" alignment-baseline="middle" transform="rotate(18,0,0)" fill="#fff" x="0" y="188">19</text>
   <text text-anchor="middle" alignment-baseline="middle" transform="rotate(36,0,0)" fill="#fff" x="0" y="188">7</text>
   <text text-anchor="middle" alignment-baseline="middle" transform="rotate(54,0,0)" fill="#fff" x="0" y="188">16</text>
   <text text-anchor="middle" alignment-baseline="middle" transform="rotate(72,0,0)" fill="#fff" x="0" y="188">8</text>
   <text text-anchor="middle" alignment-baseline="middle" transform="rotate(-90,0,0)" fill="#fff" x="0" y="-185">11</text>
   <text text-anchor="middle" alignment-baseline="middle" transform="rotate(-72,0,0)" fill="#fff" x="0" y="-185">14</text>
   <text text-anchor="middle" alignment-baseline="middle" transform="rotate(-54,0,0)" fill="#fff" x="0" y="-185">9</text>
<text text-anchor="middle" alignment-baseline="middle" transform="rotate(-36,0,0)" fill="#fff" x="0" y="-185">12</text>
  <text text-anchor="middle" alignment-baseline="middle" transform="rotate(-18,0,0)" fill="#fff" x="0" y="-185">5</text>
   
   
   
  </g>
  
</svg>